<svg preserveAspectRatio="xMidYMid meet" data-bbox="86.158 520.311 1827.7 959.381" xmlns="http://www.w3.org/2000/svg" viewBox="0 0 2000 2000" fill-rule="evenodd" clip-rule="evenodd" stroke-linejoin="round" stroke-miterlimit="2" data-type="ugc" role="presentation" aria-hidden="true">
    <g>
        <path d="M1783.189 661.015c-20.952-22.65-44.309-42.341-70.119-59.27a503.837 503.837 0 0 0-82.288-43.627c-61.335-25-125.86-37.503-193.575-37.503h-299.513v-.304H778.219v493.58c0 91.958-19.186 158.215-57.508 198.981-38.274 40.761-100.198 61.135-185.675 61.135-85.575 0-147.402-20.374-185.675-61.135-38.42-40.766-57.508-107.023-57.508-198.982V520.311H86.158v493.58c0 10.524.196 25.004.589 43.513.392 18.612 2.453 39.28 6.035 62.327 3.631 23.037 9.323 47.65 16.929 73.843 7.655 26.183 18.4 52.184 32.09 77.974 32.288 62.126 79.442 111.258 141.563 147.691 69.334 40.27 153.24 60.453 251.672 60.453 98.382 0 182.24-20.182 251.672-60.453 62.022-36.433 109.275-85.565 141.464-147.69 13.788-25.791 24.436-51.792 32.09-77.975 7.704-26.193 13.298-50.806 16.978-73.843 3.631-23.048 5.594-43.715 5.987-62.327.392-18.509.687-32.989.687-43.514v-287.6h453.293c39.5 0 76.007 6.399 109.472 19.397 33.465 12.792 62.12 31.011 85.87 54.353 23.847 23.43 42.346 51.488 55.741 84.074 13.298 32.694 19.873 68.436 19.873 107.121 0 37.022-6.575 71.581-19.873 103.383-13.395 31.899-32.09 59.372-56.33 82.312-24.24 23.047-52.749 40.962-85.87 53.857-33.072 12.895-69.382 19.397-108.883 19.397h-233.32l1.03 206.73 232.29-1.148c66.047 0 128.412-11.418 186.902-34.456 58.44-22.95 109.864-56.218 154.271-99.844 43.524-43.514 76.988-93.535 100.394-149.953 23.357-56.41 35.084-116.567 35.084-180.278 0-63.7-11.04-123.858-33.318-180.267-22.13-56.419-54.613-106.434-97.351-149.953Z" ></path>
    </g>
</svg>